<svg xmlns="http://www.w3.org/2000/svg" width="240" height="80" viewBox="0 0 240 80">
    <g fill="none" fill-rule="evenodd">
        <g fill-rule="nonzero">
            <g>
                <g>
                    <g>
                        <path fill="#A6A6A6" d="M220.27 0H19.07c-.734 0-1.459 0-2.19.004-.612.004-1.22.016-1.838.025-1.343.016-2.683.134-4.008.354-1.323.224-2.605.647-3.802 1.254-1.195.612-2.287 1.407-3.237 2.357-.954.947-1.75 2.042-2.356 3.242C1.03 8.434.609 9.718.389 11.043.166 12.366.046 13.705.03 15.047c-.018.613-.02 1.228-.03 1.842v46.228c.01.621.012 1.223.03 1.844.016 1.342.136 2.68.359 4.004.22 1.326.641 2.61 1.25 3.808.606 1.197 1.401 2.287 2.356 3.229.946.954 2.04 1.75 3.237 2.357 1.197.609 2.479 1.034 3.802 1.262 1.325.218 2.665.336 4.008.354.618.013 1.226.021 1.838.021.731.004 1.456.004 2.19.004h201.2c.718 0 1.449 0 2.168-.004.609 0 1.234-.008 1.843-.021 1.34-.017 2.678-.135 4-.354 1.328-.23 2.614-.654 3.817-1.262 1.197-.607 2.289-1.403 3.234-2.357.952-.946 1.75-2.035 2.363-3.229.604-1.199 1.022-2.483 1.239-3.808.223-1.324.347-2.662.37-4.004.009-.621.009-1.223.009-1.844.015-.726.015-1.449.015-2.187V19.072c0-.732 0-1.459-.015-2.183 0-.614 0-1.229-.008-1.842-.024-1.342-.148-2.68-.371-4.004-.218-1.324-.635-2.608-1.239-3.807-1.234-2.406-3.192-4.364-5.597-5.6-1.203-.605-2.49-1.028-3.817-1.253-1.322-.22-2.66-.339-4-.354-.61-.01-1.234-.021-1.843-.025C221.718 0 220.988 0 220.27 0z" transform="translate(-474 -602) translate(474 602)"/>
                        <path fill="#000" d="M16.89 78.25c-.61 0-1.204-.008-1.809-.021-1.252-.017-2.502-.126-3.738-.327-1.153-.198-2.27-.567-3.314-1.095-1.034-.524-1.977-1.21-2.794-2.034-.828-.813-1.517-1.757-2.04-2.793-.53-1.042-.896-2.16-1.087-3.314-.205-1.24-.317-2.493-.333-3.75-.012-.422-.029-1.826-.029-1.826V16.889s.018-1.383.03-1.79c.015-1.254.125-2.506.33-3.744.191-1.156.558-2.278 1.087-3.324.522-1.035 1.208-1.98 2.03-2.796.823-.824 1.77-1.514 2.805-2.045 1.042-.526 2.156-.893 3.307-1.087 1.24-.203 2.494-.313 3.751-.329l1.805-.024h205.537l1.826.025c1.245.015 2.488.124 3.717.326 1.162.197 2.288.566 3.342 1.095 2.075 1.07 3.764 2.762 4.83 4.84.52 1.04.881 2.151 1.07 3.298.208 1.248.324 2.51.348 3.774.005.567.005 1.175.005 1.78.016.75.016 1.465.016 2.184V60.93c0 .726 0 1.435-.016 2.15 0 .65 0 1.246-.007 1.86-.024 1.242-.138 2.48-.342 3.706-.187 1.163-.551 2.289-1.08 3.34-.527 1.025-1.213 1.96-2.031 2.772-.817.827-1.763 1.518-2.8 2.045-1.05.532-2.174.902-3.335 1.1-1.237.201-2.486.31-3.739.326-.585.013-1.199.021-1.794.021l-2.168.004-203.38-.004z" transform="translate(-474 -602) translate(474 602)"/>
                    </g>
                    <g fill="#FFF">
                        <g>
                            <path d="M30.538 23.601c.043-3.393 1.822-6.527 4.713-8.304-1.832-2.616-4.79-4.215-7.982-4.315-3.359-.353-6.615 2.01-8.326 2.01-1.745 0-4.38-1.975-7.217-1.917-3.734.12-7.13 2.192-8.946 5.456-3.868 6.697-.983 16.539 2.722 21.952 1.854 2.65 4.02 5.612 6.856 5.507 2.774-.115 3.81-1.77 7.158-1.77 3.318 0 4.29 1.77 7.182 1.703 2.977-.048 4.853-2.662 6.641-5.338 1.332-1.889 2.357-3.976 3.037-6.185-3.535-1.496-5.834-4.96-5.838-8.799zM25.075 7.422c1.623-1.949 2.422-4.453 2.229-6.981-2.48.26-4.77 1.445-6.416 3.319-1.624 1.848-2.447 4.267-2.287 6.723 2.513.025 4.899-1.103 6.474-3.061z" transform="translate(-474 -602) translate(474 602) translate(19 17)"/>
                        </g>
                        <g>
                            <path d="M16.605 19.28H7.138l-2.274 6.712H.854L9.822 1.156h4.166l8.967 24.836h-4.078l-2.271-6.713zm-8.487-3.098h7.504L11.923 5.287h-.104l-3.7 10.895zM42.32 16.94c0 5.626-3.012 9.242-7.557 9.242-2.35.123-4.562-1.108-5.698-3.168h-.086v8.968h-3.716V7.885h3.597v3.011h.069c1.185-2.047 3.4-3.277 5.765-3.2 4.596 0 7.625 3.632 7.625 9.243zm-3.82 0c0-3.667-1.895-6.077-4.786-6.077-2.84 0-4.75 2.461-4.75 6.076 0 3.649 1.91 6.092 4.75 6.092 2.89 0 4.785-2.392 4.785-6.092zM62.25 16.94c0 5.626-3.013 9.242-7.558 9.242-2.349.123-4.562-1.108-5.697-3.168h-.086v8.968h-3.717V7.885h3.598v3.011h.068c1.186-2.047 3.401-3.277 5.766-3.2 4.596 0 7.625 3.632 7.625 9.243zm-3.821 0c0-3.667-1.895-6.077-4.785-6.077-2.84 0-4.75 2.461-4.75 6.076 0 3.649 1.91 6.092 4.75 6.092 2.89 0 4.785-2.392 4.785-6.092zM75.42 19.072c.276 2.463 2.669 4.08 5.938 4.08 3.133 0 5.387-1.617 5.387-3.838 0-1.927-1.36-3.082-4.578-3.873l-3.219-.775c-4.56-1.102-6.677-3.234-6.677-6.695 0-4.286 3.734-7.229 9.037-7.229 5.248 0 8.845 2.943 8.966 7.229h-3.752c-.224-2.479-2.273-3.975-5.267-3.975s-5.043 1.514-5.043 3.717c0 1.756 1.309 2.789 4.51 3.58l2.736.672c5.096 1.205 7.213 3.252 7.213 6.884 0 4.647-3.701 7.557-9.588 7.557-5.508 0-9.227-2.842-9.467-7.334h3.805zM98.692 3.6v4.285h3.444v2.943h-3.444v9.983c0 1.55.69 2.273 2.204 2.273.408-.007.816-.036 1.222-.086v2.926c-.68.127-1.372.185-2.064.172-3.666 0-5.096-1.377-5.096-4.889V10.828h-2.633V7.885h2.633V3.6h3.734zM104.13 16.94c0-5.698 3.355-9.278 8.588-9.278 5.25 0 8.59 3.58 8.59 9.277 0 5.713-3.323 9.278-8.59 9.278-5.266 0-8.588-3.565-8.588-9.278zm13.39 0c0-3.909-1.79-6.215-4.802-6.215-3.012 0-4.8 2.324-4.8 6.214 0 3.924 1.788 6.213 4.8 6.213 3.012 0 4.803-2.289 4.803-6.213zM124.372 7.885h3.545v3.082h.086c.494-1.984 2.312-3.35 4.356-3.272.428-.001.855.045 1.273.139v3.477c-.54-.166-1.105-.242-1.67-.225-1.093-.044-2.15.391-2.895 1.192-.744.801-1.102 1.887-.978 2.974v10.74h-3.717V7.885zM150.769 20.674c-.5 3.287-3.702 5.543-7.797 5.543-5.268 0-8.537-3.53-8.537-9.192 0-5.68 3.287-9.363 8.38-9.363 5.01 0 8.16 3.442 8.16 8.932v1.273h-12.788v.225c-.12 1.348.346 2.682 1.278 3.664.932.98 2.24 1.514 3.593 1.465 1.803.169 3.504-.867 4.181-2.547h3.53zm-12.565-5.404h9.053c.067-1.212-.374-2.396-1.217-3.269-.843-.872-2.012-1.353-3.225-1.327-1.222-.007-2.397.474-3.263 1.337-.866.863-1.351 2.036-1.348 3.259z" transform="translate(-474 -602) translate(474 602) translate(19 17) translate(49 18)"/>
                        </g>
                    </g>
                </g>
                <g fill="#FFF">
                    <path d="M4.652 1.462c1.578-.113 3.124.487 4.212 1.636 1.087 1.148 1.603 2.724 1.404 4.294 0 3.812-2.06 6.004-5.616 6.004H.342V1.462h4.31zM2.195 11.708h2.25c1.128.067 2.226-.377 2.99-1.21.763-.832 1.11-1.964.946-3.082.153-1.113-.2-2.236-.962-3.062-.761-.826-1.852-1.268-2.974-1.206h-2.25v8.56zM12.361 8.889c-.154-1.615.62-3.177 1.998-4.032 1.378-.855 3.121-.855 4.499 0 1.378.855 2.152 2.417 1.997 4.032.158 1.616-.615 3.18-1.995 4.038-1.379.857-3.125.857-4.504 0-1.379-.857-2.152-2.422-1.995-4.038zm6.666 0c0-1.952-.877-3.094-2.416-3.094-1.545 0-2.414 1.142-2.414 3.094 0 1.967.87 3.1 2.414 3.1 1.54 0 2.416-1.14 2.416-3.1zM32.147 13.396L30.303 13.396 28.441 6.763 28.301 6.763 26.447 13.396 24.621 13.396 22.139 4.39 23.941 4.39 25.555 11.262 25.688 11.262 27.539 4.39 29.244 4.39 31.096 11.262 31.236 11.262 32.842 4.39 34.619 4.39zM36.707 4.39h1.711v1.43h.133c.462-1.053 1.54-1.697 2.687-1.604.888-.067 1.758.274 2.364.925.607.652.884 1.544.754 2.424v5.83h-1.778V8.012c0-1.448-.629-2.167-1.943-2.167-.602-.028-1.187.208-1.6.647-.413.438-.614 1.036-.55 1.635v5.268h-1.778V4.39zM47.188.874L48.965.874 48.965 13.395 47.188 13.395zM51.436 8.889c-.155-1.615.62-3.177 1.997-4.032 1.378-.855 3.122-.855 4.5 0 1.378.855 2.152 2.417 1.998 4.032.157 1.616-.617 3.18-1.996 4.038-1.379.857-3.125.857-4.504 0-1.38-.857-2.153-2.422-1.995-4.038zm6.666 0c0-1.952-.877-3.094-2.416-3.094-1.545 0-2.414 1.142-2.414 3.094 0 1.967.869 3.1 2.414 3.1 1.539 0 2.416-1.14 2.416-3.1zM61.802 10.849c0-1.621 1.207-2.556 3.35-2.689l2.439-.14v-.778c0-.951-.629-1.488-1.844-1.488-.992 0-1.68.364-1.877 1h-1.72c.181-1.546 1.636-2.538 3.68-2.538 2.257 0 3.53 1.124 3.53 3.026v6.154h-1.71V12.13h-.141c-.581.924-1.615 1.464-2.705 1.414-.765.08-1.527-.168-2.1-.682-.571-.513-.9-1.245-.902-2.013zm5.789-.77v-.753l-2.2.14c-1.24.084-1.802.506-1.802 1.3 0 .81.703 1.282 1.67 1.282.572.058 1.144-.119 1.583-.49.44-.371.71-.905.749-1.479zM71.696 8.889c0-2.846 1.463-4.649 3.739-4.649 1.149-.053 2.225.563 2.761 1.58h.133V.874h1.777v12.521h-1.703v-1.422h-.14c-.577 1.008-1.667 1.614-2.828 1.57-2.291.001-3.739-1.802-3.739-4.654zm1.836 0c0 1.91.9 3.06 2.407 3.06 1.498 0 2.423-1.167 2.423-3.053 0-1.876-.935-3.06-2.423-3.06-1.497 0-2.407 1.158-2.407 3.053zM87.46 8.889c-.154-1.615.62-3.177 1.997-4.032 1.378-.855 3.122-.855 4.5 0 1.378.855 2.152 2.417 1.997 4.032.158 1.616-.616 3.18-1.995 4.038-1.379.857-3.125.857-4.504 0-1.379-.857-2.152-2.422-1.995-4.038zm6.666 0c0-1.952-.877-3.094-2.416-3.094-1.545 0-2.414 1.142-2.414 3.094 0 1.967.87 3.1 2.414 3.1 1.54 0 2.416-1.14 2.416-3.1zM98.339 4.39h1.71v1.43h.134c.462-1.053 1.54-1.697 2.687-1.604.888-.067 1.758.274 2.364.925.606.652.884 1.544.753 2.424v5.83h-1.777V8.012c0-1.448-.629-2.167-1.943-2.167-.602-.028-1.187.208-1.6.647-.413.438-.615 1.036-.55 1.635v5.268h-1.778V4.39zM116.03 2.147v2.284h1.951v1.497h-1.95v4.63c0 .944.388 1.357 1.273 1.357.226 0 .453-.014.677-.041v1.48c-.319.058-.642.088-.966.091-1.977 0-2.764-.695-2.764-2.431V5.928h-1.43V4.43h1.43V2.147h1.78zM120.41.874h1.76v4.963h.142c.484-1.063 1.582-1.708 2.746-1.613.882-.048 1.74.3 2.34.949.6.65.879 1.532.761 2.408v5.814h-1.779V8.02c0-1.439-.67-2.167-1.926-2.167-.618-.051-1.227.174-1.665.614-.437.44-.657 1.05-.602 1.669v5.26h-1.778V.873zM138.523 10.964c-.499 1.699-2.143 2.796-3.903 2.605-1.2.032-2.355-.466-3.156-1.36-.801-.896-1.168-2.098-1.004-3.288-.16-1.193.206-2.397 1.003-3.3.796-.903 1.945-1.415 3.15-1.405 2.505 0 4.017 1.712 4.017 4.54v.62h-6.36v.1c-.056.668.173 1.329.63 1.82.456.491 1.098.767 1.769.76.87.104 1.716-.327 2.143-1.092h1.71zm-6.252-2.902h4.548c.046-.612-.17-1.214-.591-1.658-.423-.444-1.013-.69-1.625-.675-.621-.008-1.22.235-1.658.674-.44.44-.683 1.038-.674 1.659z" transform="translate(-474 -602) translate(474 602) translate(71 16)"/>
                </g>
            </g>
        </g>
    </g>
</svg>
