<svg xmlns="http://www.w3.org/2000/svg" width="148" height="320" viewBox="0 0 148 320">
    <defs>
        <linearGradient id="uo10tunnpa" x1="50.012%" x2="50.012%" y1="100.028%" y2="-.003%">
            <stop offset="0%" stop-color="gray" stop-opacity=".25"/>
            <stop offset="54%" stop-color="gray" stop-opacity=".12"/>
            <stop offset="100%" stop-color="gray" stop-opacity=".1"/>
        </linearGradient>
    </defs>
    <g fill="none" fill-rule="evenodd">
        <g>
            <g>
                <g>
                    <path fill="url(#uo10tunnpa)" fill-rule="nonzero" d="M84.845 62.798c-.25-.28-.508-.561-.774-.842 2.031-2.307 4.138-4.678 4.117-7.646-.02-3.605-3.217-6.375-4.411-9.782-1.624-4.631.63-9.608 1.556-14.433 1.453-7.926-.696-16.088-5.863-22.266-.938-1.112-2.027-2.185-3.428-2.627-2.128-.67-4.386.26-6.603.534C62.126 6.642 55.477.334 48.13.898c-.486.018-.965.125-1.413.316-.95.455-1.468 1.461-2.052 2.324-2.284 3.369-6.115 5.053-9.926 6.758-.479.142-.935.352-1.354.624-1.144.534-2.27 1.09-3.335 1.722-7.2 4.265-6.153 10.236-1.91 13.92-.84 4.139-5.046 7.781-4.327 12.038.572 3.335 4.042 5.604 4.71 8.922.387 1.929-.222 3.764-1.072 5.588-8.054 1.865-17.155 5.305-17.866 11.368C8.348 75.03 4.63 104.176 4.63 104.176s-4.315 23.343 12.05 12.286l-.21.623c-2.952 8.942-4.966 18.166-6.01 27.525-.165 1.394-.501 2.488-1.107 2.846-.219.13.215.337 1.16.594-.104.392-.222.783-.323 1.179-1.798 6.825-2.947 13.805-3.432 20.847-.461 6.236-1.321 12.437-2.574 18.564-3.877 19.529 0 44.582 0 44.582l8.462 39.882 1.447 6.817c.956 1.058 2.124 1.902 3.428 2.476.566 2.444.96 4.924 1.177 7.423.021.278.042.56.059.843-1.03.127-1.953.701-2.523 1.57-3.016 4.244.42 7.642-11.2 16.135-3.007 2.194-4.454 4.19-4.824 5.895-.395 1.823.463 3.301 1.998 4.299.262.169.534.32.816.455.143.067.283.132.42.193.149.062.302.12.459.173h.025l.45.143h.033l.484.126h.042l.454.097h.06l.5.085h.054l.455.054h.088l.509.038h1.207l.454-.025h.122l.513-.05h.059l.458-.068.127-.021.508-.097h.05l.464-.114.13-.033c.168-.047.332-.093.5-.148h.03l.467-.164.126-.046c.164-.063.324-.126.483-.198 7.756-3.398 23.695-12.312 23.695-12.312v-.286-.122-.11-.269-.321-.206-.37c-.046-3.659-.425-12.198-2.107-11.865-.576.113-.967.922-1.367 1.852l-.197-.379c-1.64-3.17-4.017-8.61-4.248-13.928 1.325-.96 2.552-2.05 3.663-3.251 0 0-.866-3.65-1.602-7.503-.64-3.34-1.182-6.826-.984-8.207.42-2.972-5.17-25.899-5.17-25.899s.577-5.053 1.738-12.055c2.254-13.625 6.691-34.678 13.31-40.632.156-.135.308-.27.463-.387 0 0 4.74.842 8.618 27.596l1.123 11.911c.325 3.3.887 6.572 1.682 9.79.765 3.17 1.585 8.476 1.08 15.66-.491 7.023-.702 15.288-.79 21.09-.067 4.375-.067 7.352-.067 7.352.802.679 1.668 1.278 2.586 1.79v3.894c-.01.827-.334 1.62-.908 2.215-.61.688-1.055 1.508-1.3 2.396-.753 1.355-1.388 3.558-1.653 7.099-.84 11.465-1.29 10.19-1.29 10.19-.495 1.239-.823 2.539-.976 3.865-.026.248-.038.497-.047.75v.627c0 .056.007.14.021.252 0 .076.01.152.03.228 0 .054 0 .109.025.16.025.05.038.202.063.303l.034.13c.03.106.059.207.092.308l.034.092c.034.093.071.183.114.27l.037.08c.05.1.106.202.169.299l.05.08c.064.096.132.189.206.278l.055.063c.081.093.168.182.26.265l.03.025c.095.083.195.16.299.232l.046.034c.114.074.232.141.353.202l.072.038c.137.062.277.117.42.164l.072.02c.157.053.317.096.48.131.167.034.344.063.53.08h.075c.185 0 .378.03.58.03h.858c.236 0 .484-.042.74-.08 9.047-1.263 13.357-2.105 12.924-7.217-.26-3.07-.988-7.529-1.526-10.59-.273-1.553-.775-3.057-1.49-4.463.023-.239.044-.484.064-.737.156-2.105.147-4.631-.492-6.286l.198-3.718c2.238-.57 4.262-1.784 5.82-3.49 0 0 .063-2.755.252-6.41.286-5.641.842-13.427 1.901-16.517 1.725-5.095 0-22.927 0-22.927s-6.464-30.569-.42-43.731c5.32-11.609 5.274-23.226.156-34.527.1-.08.192-.17.273-.27 0 0-1.291-.842-.841-10.614.328-7.453-1.85-15.159-2.902-18.375 1.644.706 3.33 1.313 5.047 1.819 9.887 2.951 10.75-8.106 10.75-8.106l2.153-16.56 2.557-24.662c.698-1.936 1.636-6.779-3.331-12.442zM41.047 46.44c0 .274-.03.547-.059.817-.08.878-.265 1.743-.55 2.577.294-1.127.473-2.281.533-3.444l.076.05zm26.046 60.275c.151.282.298.551.42.842L66.424 107c.403-2.002 1.056-3.946 1.943-5.785 1.07-2.14 1.951-4.371 2.633-6.666-.03 2.651.097 5.302.382 7.937.88 6.775-4.29 4.228-4.29 4.228z" transform="translate(-935 -458) translate(935 458) translate(.777)"/>
                    <path fill="#000" fill-rule="nonzero" d="M30.558 14.406c-1.375.939-2.818 2.025-3.306 3.621-.79 2.573 1.195 5.154 1.388 7.84.358 4.88-5.156 8.914-4.344 13.744.555 3.309 3.945 5.557 4.597 8.842.95 4.8-4.244 9.031-3.836 13.895.219 2.598 2.023 4.804 4.067 6.412 2.873 2.253 6.313 3.666 9.938 4.085-.24-4.173-3.335-7.975-2.801-12.123.366-2.842 2.364-5.17 3.52-7.793 2.031-4.607 1.38-9.937.164-14.822-1.215-4.884-2.978-9.713-3.066-14.737-.055-3.031 1.367-7.482.324-10.358-1.266-3.499-4.286-.219-6.645 1.394z" transform="translate(-935 -458) translate(935 458) translate(.777)"/>
                    <path fill="#FFC1C7" fill-rule="nonzero" d="M34.591 296.225l-3.785 3.79s-13.458 7.157-11.776-2.527c.46-2.879.558-5.804.29-8.708-.347-4.052-1.15-8.052-2.392-11.924l12.616-2.526c-2.102 6.602 1.359 14.914 3.516 19.145.863 1.706 1.531 2.75 1.531 2.75zM63.249 288.566c-.095 1.297-.255 2.588-.48 3.87 0 0-10.514 7.157-11.355-.843-.547-5.213.69-7.579 1.623-8.573.56-.593.876-1.377.884-2.193v-9.445l9.252 2.948-.42 8c.639 1.663.647 4.147.496 6.236z" transform="translate(-935 -458) translate(935 458) translate(.777)"/>
                    <path fill="#000" fill-rule="nonzero" d="M34.591 296.225l-3.785 3.79s-13.458 7.157-11.776-2.527c.46-2.879.558-5.804.29-8.708 2.944-.42 6.44 2.813 6.44 2.813 4.928 6.964 6.257 4.329 7.3 1.882.863 1.706 1.531 2.75 1.531 2.75z" opacity=".05" transform="translate(-935 -458) translate(935 458) translate(.777)"/>
                    <path fill="#000" fill-rule="nonzero" d="M25.76 292.435s-5.889-5.474-8.832-1.263c-2.944 4.21.42 7.58-10.935 16-11.356 8.421 0 13.895 7.57 10.527 7.57-3.369 23.131-12.21 23.131-12.21s0-13.896-2.103-13.475c-2.103.421-1.682 10.527-8.832.421z" transform="translate(-935 -458) translate(935 458) translate(.777)"/>
                    <path fill="#000" fill-rule="nonzero" d="M63.249 288.566c-.095 1.297-.255 2.588-.48 3.87 0 0-10.514 7.157-11.355-.843-.547-5.213.69-7.579 1.623-8.573.745-.56 1.738-.663 2.583-.27 1.682-.749 3.532.502 5.046 2.106 1.045 1.098 1.916 2.349 2.583 3.71z" opacity=".05" transform="translate(-935 -458) translate(935 458) translate(.777)"/>
                    <path fill="#000" fill-rule="nonzero" d="M55.62 283.593s-4.627-2.526-5.468 8.842c-.84 11.369-1.261 10.106-1.261 10.106s-4.206 10.105 4.626 8.842 13.037-2.105 12.617-7.158c-.253-3.044-.968-7.47-1.493-10.501-.504-2.999-1.88-5.782-3.958-8-1.526-1.634-3.381-2.88-5.063-2.131zM70.76 229.697s1.682 17.685 0 22.738c-1.022 3.065-1.577 10.787-1.855 16.383-.185 3.621-.248 6.354-.248 6.354-7.99 8.421-17.243 0-17.243 0s0-2.948.067-7.293c.089-5.756.295-13.954.774-20.918.492-7.124-.307-12.383-1.056-15.529-.772-3.192-1.317-6.436-1.631-9.705l-1.098-11.815c-3.785-26.527-8.411-27.369-8.411-27.369-.152.118-.299.249-.45.383-6.464 5.895-10.796 26.784-12.996 40.296-1.131 6.951-1.682 11.953-1.682 11.953s5.467 22.738 5.047 25.685c-.194 1.368.336 4.83.959 8.14.719 3.818 1.564 7.44 1.564 7.44-10.514 11.368-17.664 2.526-17.664 2.526l-1.413-6.763-8.26-39.554s-3.785-24.842 0-44.211c1.227-6.079 2.07-12.228 2.524-18.413.477-6.981 1.603-13.902 3.364-20.674.513-2.004 1.082-3.993 1.708-5.966 0 0 15.792-2.75 30.663-2.75 11.154 0 21.786 1.545 24.851 6.96.707 1.247 1.35 2.496 1.927 3.748 5.324 11.457 5.467 23.225.176 34.99-5.926 13.048.383 43.364.383 43.364z" transform="translate(-935 -458) translate(935 458) translate(.777)"/>
                    <path fill="#FFC1C7" fill-rule="nonzero" d="M35.432 76.853S13.142 54.116 29.965 55.8c3.815.383 6.397-.299 8.109-1.579 1.951-1.457 2.771-3.688 2.998-6.017.463-4.631-1.434-9.684-1.434-9.684s22.71-18.106 18.084 4.632c-.508 2.31-.803 4.663-.883 7.027-.075 4.825 1.51 6.674 3.735 7.432 3.751 1.284 9.328-.514 11.868 3.646 4.626 7.596-37.01 15.596-37.01 15.596z" transform="translate(-935 -458) translate(935 458) translate(.777)"/>
                    <path fill="#000" fill-rule="nonzero" d="M57.722 43.168c-.508 2.311-.803 4.663-.883 7.028-.605.21-1.221.385-1.846.526-4.79 1.082-9.814.17-13.92-2.526.462-4.632-1.435-9.684-1.435-9.684s22.71-18.08 18.084 4.656z" opacity=".05" transform="translate(-935 -458) translate(935 458) translate(.777)"/>
                    <path fill="#FFC1C7" fill-rule="nonzero" d="M69.078 32.22c0 10-8.097 18.106-18.085 18.106-9.987 0-18.084-8.106-18.084-18.105 0-.337 0-.674.03-1.006.557-9.778 8.78-17.339 18.557-17.067 9.778.273 17.568 8.28 17.582 18.073z" transform="translate(-935 -458) translate(935 458) translate(.777)"/>
                    <path fill="#000" fill-rule="nonzero" d="M35.432 76.853S13.142 54.116 29.965 55.8c3.815.383 6.397-.299 8.109-1.579-3.256 5.407-6.919 15.129 9.555 14.211 15.077-.842 14.82-6.855 12.945-10.804 3.751 1.284 9.328-.514 11.868 3.646 4.626 7.579-37.01 15.58-37.01 15.58z" opacity=".05" transform="translate(-935 -458) translate(935 458) translate(.777)"/>
                    <path fill="#000" fill-rule="nonzero" d="M70.76 153.065c-3.827 4.98-52.613-1.55-59.746-3.718.513-2.004 1.083-3.993 1.708-5.967 0 0 15.792-2.75 30.663-2.75 11.154 0 21.786 1.546 24.852 6.961.706 1.246 1.348 2.496 1.926 3.747.269 1.508.597 1.727.597 1.727z" opacity=".1" transform="translate(-935 -458) translate(935 458) translate(.777)"/>
                    <path fill="#413F8D" d="M40.059 52.01s-28.389 2.317-29.65 13.264c-1.207 10.468-4.837 39.369-4.837 39.369s-4.205 23.158 11.776 12.21l-.206.615c-2.882 8.875-4.848 18.022-5.867 27.298-.164 1.38-.488 2.467-1.08 2.825-2.104 1.263 56.355 9.684 60.56 4.21 0 0-1.26-.841-.84-10.526.42-9.684-3.365-19.79-3.365-19.79s-3.364-10.105 1.262-19.79c4.626-9.684 2.944-12.631 2.944-12.631l15.981-12.21s3.453-5.925-2.86-13.235c-3.827-4.368-9.23-7.034-15.022-7.41l-11.019-.8s12.079 13.01-10.632 14.274C24.494 70.946 40.06 52.01 40.06 52.01z" transform="translate(-935 -458) translate(935 458) translate(.777)"/>
                    <path fill="#000" fill-rule="nonzero" d="M21.133 75.169s.841 6.737-.841 8.842c-1.682 2.105-2.103 11.79 0 17.685" opacity=".05" transform="translate(-935 -458) translate(935 458) translate(.777)"/>
                    <path fill="#000" fill-rule="nonzero" d="M39.609 182.922c-6.464 5.895-10.796 26.784-12.996 40.295-3.062-18.808 9.673-49.941 9.673-49.941l3.323 9.646zM32.488 276.435c-10.514 11.369-17.663 2.526-17.663 2.526l-1.413-6.762c3.974 2.068 10.69 3.672 17.512-3.204.72 3.819 1.564 7.44 1.564 7.44zM68.905 268.818c-.185 3.621-.248 6.354-.248 6.354-7.99 8.421-17.243 0-17.243 0s0-2.948.067-7.293c3.47 2.206 9.707 4.636 17.424.94z" opacity=".1" transform="translate(-935 -458) translate(935 458) translate(.777)"/>
                    <g fill-rule="nonzero" transform="translate(-935 -458) translate(935 458) translate(.777) rotate(-90 69.616 34.86)">
                        <rect width="25.34" height="11.79" fill="#CDD0DB" rx="2.001"/>
                        <rect width="25.34" height="11.79" fill="#000" opacity=".05" rx="2.001"/>
                        <rect width="25.34" height="11.79" x=".735" fill="#CDD0DB" rx=".485"/>
                        <ellipse cx="20.31" cy="5.684" fill="#9DA7C0" rx="1.118" ry="1.263"/>
                    </g>
                    <path fill="#000" fill-rule="nonzero" d="M11.065 108.155c.768-2.29 2.507-4.124 4.752-5.01 1.439-.599 3.192-1.685 4.08-3.668 1.657-3.676 4.6-7.466 12.17-4.94 7.571 2.527-2.102 4.211-2.102 4.211s17.243-2.526 10.514 2.527c-6.729 5.052-15.14 8-15.14 8l-4.143 4.391c-2.523 2.682-6.905 2.67-9.252-.185-1.052-1.288-1.607-3.023-.88-5.326z" opacity=".05" transform="translate(-935 -458) translate(935 458) translate(.777)"/>
                    <path fill="#FFC1C7" fill-rule="nonzero" d="M10.644 107.313c.769-2.29 2.508-4.124 4.753-5.011 1.438-.598 3.192-1.684 4.08-3.667 1.656-3.676 4.6-7.466 12.17-4.94 7.57 2.527-2.103 4.211-2.103 4.211s17.244-2.526 10.515 2.526c-6.73 5.053-15.14 8-15.14 8l-4.143 4.392c-2.524 2.682-6.906 2.67-9.253-.185-1.051-1.288-1.606-3.023-.879-5.326z" transform="translate(-935 -458) translate(935 458) translate(.777)"/>
                    <path fill="#000" fill-rule="nonzero" d="M69.919 116.012l-2.944 7.158-3.785-2.775-10.514-7.752-7.15-4.631c-10.094-7.58 0-8.843 0-8.843-3.785-1.684 0-3.368 0-3.368 13.458-2.948 10.935 8 10.935 8l8.525 4.425 2.83 1.47 2.103 6.316z" opacity=".05" transform="translate(-935 -458) translate(935 458) translate(.777)"/>
                    <path fill="#FFC1C7" fill-rule="nonzero" d="M70.76 115.17l-2.944 7.158-3.785-2.775-10.514-7.752-7.15-4.632c-10.093-7.579 0-8.842 0-8.842-3.785-1.684 0-3.368 0-3.368 13.458-2.948 10.935 8 10.935 8l8.525 4.425 2.83 1.47 2.103 6.316z" transform="translate(-935 -458) translate(935 458) translate(.777)"/>
                    <path fill="#000" fill-rule="nonzero" d="M70.76 115.17l-2.944 7.158-3.785-2.775c3.41.122 7.44-1.529 1.779-12.169l2.83 1.47 2.12 6.316z" opacity=".05" transform="translate(-935 -458) translate(935 458) translate(.777)"/>
                    <path fill="#413F8D" d="M86.32 72.643l.813 3.313-2.494 24.476-2.103 16.422s-.841 10.947-10.514 8c-9.673-2.948-10.514-5.895-10.514-5.895s13.878 4.632 5.046-11.79c0 0 5.047 2.527 4.206-4.21-.841-6.737 0-18.527 0-18.527l15.56-11.79z" transform="translate(-935 -458) translate(935 458) translate(.777)"/>
                    <path fill="#000" fill-rule="nonzero" d="M69.078 32.22c0 8.458-5.847 15.79-14.085 17.66-.606-1.751-1.035-3.495-.593-5.267.841-3.44 4.82-5.95 4.378-9.466-.043-.397-.188-.777-.42-1.103-.888-1.17-2.696-.59-4.135-.299-3.717.741-7.789-1.772-8.798-5.432-3.294 3.244-8.125 4.364-12.508 2.902.558-9.778 8.78-17.339 18.558-17.067 9.778.273 17.568 8.28 17.582 18.073h.02z" opacity=".05" transform="translate(-935 -458) translate(935 458) translate(.777)"/>
                    <path fill="#000" fill-rule="nonzero" d="M45.867 27.471c1.005 3.66 5.08 6.173 8.794 5.428 1.438-.286 3.246-.868 4.134.303.226.325.364.704.4 1.099.445 3.52-3.52 6.025-4.374 9.47-.88 3.545 1.682 6.968 2.25 10.577.298 1.974 0 3.987 0 5.983 0 1.996.47 4.143 1.951 5.474 1.48 1.33 4.206 1.355 5.202-.38 4.732 2.506 2.843 10.266 6.435 14.237 1.98 2.19 5.24 2.715 8.18 2.438.689-.011 1.358-.228 1.922-.624.486-.48.815-1.097.942-1.768.742-2.811.615-5.781-.366-8.518-.47-1.31-1.148-2.632-.971-4.009.134-1.077.778-2.016 1.46-2.863 2.258-2.804 5.34-5.516 5.32-9.12-.022-3.604-3.142-6.316-4.307-9.684-1.586-4.602.614-9.533 1.518-14.316 1.431-7.852-.66-15.937-5.72-22.106-.917-1.103-1.98-2.168-3.364-2.606-2.074-.665-4.282.26-6.448.53-7.15.897-13.63-5.36-20.805-4.8-.475.019-.943.126-1.38.316-.929.45-1.43 1.449-2.006 2.307-3.166 4.737-9.39 6.089-14.27 9.028-14.227 8.577 4.606 24.106 15.503 13.604z" transform="translate(-935 -458) translate(935 458) translate(.777)"/>
                    <path fill="#FFF" fill-rule="nonzero" d="M13.563 316.015c-4.916 2.185-11.423.644-12.276-3.007-1.03 4.826 6.661 7.192 12.276 4.69 7.57-3.368 23.131-12.21 23.131-12.21s0-.653-.02-1.684c-.455.27-15.654 8.872-23.111 12.21zM66.113 303.98c-.484 3.79-4.681 4.586-12.596 5.719-4.025.577-5.337-1.213-5.581-3.327-.265 2.708.505 5.735 5.58 5.01 8.833-1.262 13.038-2.104 12.618-7.157-.009-.08-.017-.164-.021-.244z" opacity=".3" transform="translate(-935 -458) translate(935 458) translate(.777)"/>
                    <path stroke="#535461" stroke-width="1.067" d="M118.145 311.577s-6.09-30.902 6.447-52.06c5.316-8.846 7.623-19.18 6.574-29.449-.54-4.872-1.526-9.683-2.944-14.375" transform="translate(-935 -458) translate(935 458) translate(.777)"/>
                    <path fill="#413F8D" d="M136.057 202.303c-.336 3.685-7.99 13.76-7.99 13.76s-5.687-11.3-5.346-14.99c.172-2.42 1.638-4.56 3.833-5.591 2.195-1.032 4.776-.795 6.747.62 1.97 1.414 3.023 3.785 2.752 6.197l.004.004zM145.204 223.735c-2.283 2.91-14.173 7.209-14.173 7.209s1.363-12.581 3.647-15.49c1.437-2 3.854-3.05 6.294-2.734 2.44.316 4.511 1.947 5.392 4.247.881 2.3.431 4.9-1.172 6.768h.012zM141.52 258.582c-3.44 1.356-15.868-.943-15.868-.943s7.52-10.173 10.96-11.529c2.235-.922 4.793-.567 6.693.93 1.9 1.496 2.846 3.901 2.476 6.293-.37 2.391-1.998 4.398-4.26 5.25zM132.802 284.317c-3.163 1.92-15.8 1.756-15.8 1.756s5.698-11.293 8.856-13.217c2.047-1.29 4.63-1.374 6.756-.22 2.126 1.153 3.466 3.364 3.505 5.785.04 2.421-1.229 4.675-3.317 5.896zM116.968 230.367c2.405 2.813 14.463 6.602 14.463 6.602s-1.893-12.514-4.294-15.322c-2.42-2.749-6.598-3.042-9.378-.658-2.78 2.384-3.132 6.56-.791 9.378zM107.152 260.599c3.133 1.962 15.775 1.966 15.775 1.966s-5.543-11.364-8.676-13.335c-2.03-1.308-4.605-1.421-6.742-.297-2.136 1.125-3.502 3.315-3.576 5.73-.073 2.416 1.158 4.684 3.223 5.936h-.004zM101.634 291.29c2.759 2.463 15.216 4.61 15.216 4.61s-3.546-12.147-6.309-14.61c-1.77-1.69-4.318-2.28-6.649-1.537-2.33.741-4.071 2.696-4.542 5.099-.47 2.402.405 4.87 2.284 6.438z" transform="translate(-935 -458) translate(935 458) translate(.777)"/>
                </g>
            </g>
        </g>
    </g>
</svg>
