<svg xmlns="http://www.w3.org/2000/svg" xmlns:xlink="http://www.w3.org/1999/xlink" width="60" height="60" viewBox="0 0 60 60">
    <defs>
        <path id="nnrh2hycoa" d="M22.5 10.667h-1.25V8.19C21.25 4.773 18.45 2 15 2S8.75 4.773 8.75 8.19v2.477H7.5c-1.375 0-2.5 1.114-2.5 2.476v12.38C5 26.887 6.125 28 7.5 28h15c1.375 0 2.5-1.114 2.5-2.476V13.143c0-1.362-1.125-2.476-2.5-2.476zM15 21.81c-1.375 0-2.5-1.115-2.5-2.477 0-1.362 1.125-2.476 2.5-2.476s2.5 1.114 2.5 2.476c0 1.362-1.125 2.477-2.5 2.477zm3.875-11.143h-7.75V8.19c0-2.117 1.738-3.838 3.875-3.838s3.875 1.721 3.875 3.838v2.477z"/>
    </defs>
    <g fill="none" fill-rule="evenodd">
        <g>
            <g>
                <g transform="translate(-490 -583) translate(330 347) translate(160 236)">
                    <circle cx="30" cy="30" r="30" fill="#413F8D"/>
                    <g transform="translate(15 15)">
                        <g fill="#FFF">
                            <path d="M13.864 16.136v12.5h-12.5v-12.5h12.5zm5.681 7.955v2.271l9.091.002v2.272H17.273v-4.545h2.272zm-7.955-5.682H3.636v7.954h7.954v-7.954zm7.955-2.273v3.409h2.272l.001-3.409h6.818v7.955h-2.272l-.002-5.682H24.09v3.41h-6.817v-5.683h2.272zM9.318 20.682v3.409H5.91v-3.41h3.41zm4.546-19.318v12.5h-12.5v-12.5h12.5zm14.772 0v12.5h-12.5v-12.5h12.5zM11.59 3.636H3.636v7.954h7.954V3.636zm14.773 0h-7.954v7.954h7.954V3.636zM9.317 5.91v3.41H5.91v-3.41h3.41zm14.773 0v3.41h-3.41v-3.41h3.41z"/>
                        </g>
                    </g>
                </g>
            </g>
        </g>
    </g>
</svg>
