<svg xmlns="http://www.w3.org/2000/svg" width="72" height="72" viewBox="0 0 72 72">
    <g fill="none" fill-rule="evenodd">
        <g fill="#000" fill-rule="nonzero">
            <g>
                <g>
                    <path d="M10.547 18.703c0-1.553 1.259-2.812 2.812-2.812H47.25c1.553 0 2.813 1.259 2.813 2.812 0 1.554-1.26 2.813-2.813 2.813H13.36c-1.554 0-2.813-1.26-2.813-2.813zm3.094-5.062c1.553 0 2.812-1.26 2.812-2.813 0-1.553-1.259-2.812-2.812-2.812-1.554 0-2.813 1.259-2.813 2.812 0 1.554 1.26 2.813 2.813 2.813zm9.984 0c1.553 0 2.813-1.26 2.813-2.813 0-1.553-1.26-2.812-2.813-2.812-1.553 0-2.813 1.259-2.813 2.812 0 1.554 1.26 2.813 2.813 2.813zm12.656 32.062c0 5.196 4.248 9.422 9.47 9.422h12.187c1.553 0 2.812 1.259 2.812 2.813v2.812C60.75 66.953 55.703 72 49.5 72H11.25C5.047 72 0 66.953 0 60.75v-49.5C0 5.047 5.047 0 11.25 0H49.5c6.203 0 11.25 5.047 11.25 11.25v34.453c0 1.554-1.259 2.813-2.813 2.813-1.553 0-2.812-1.26-2.812-2.813 0-5.18-4.222-9.396-9.422-9.422-5.2.026-9.422 4.243-9.422 9.422zM5.625 11.25v22.745c2.552-2.054 5.785-3.3 9.303-3.338h.236c2.66.028 5.216.74 7.48 2.072 2.198-1.29 4.75-2.043 7.472-2.072h.236c2.716.029 5.323.77 7.622 2.155 2.228-1.34 4.83-2.125 7.611-2.155h.237c3.518.038 6.752 1.284 9.303 3.338V11.25c0-3.101-2.523-5.625-5.625-5.625H11.25c-3.101 0-5.625 2.524-5.625 5.625zm24.61 43.875c1.139-.005 2.25-.212 3.293-.603-1.805-2.48-2.872-5.527-2.872-8.819 0-3.292 1.067-6.34 2.873-8.82-1.043-.39-2.154-.596-3.295-.602-5.2.026-9.422 4.243-9.422 9.422 0 5.18 4.223 9.397 9.422 9.422zm-15.047-9.422c0-3.327 1.089-6.405 2.93-8.899-.978-.339-2.01-.517-3.071-.523-5.2.026-9.422 4.243-9.422 9.422 0 5.18 4.222 9.397 9.422 9.422 1.057-.005 2.092-.183 3.071-.523-1.841-2.494-2.93-5.572-2.93-8.899zM55.124 60.75h-49.5c0 3.101 2.524 5.625 5.625 5.625H49.5c3.101 0 5.625-2.524 5.625-5.625z" transform="translate(-285 -639) translate(285 639) translate(6)"/>
                </g>
            </g>
        </g>
    </g>
</svg>
