<svg xmlns="http://www.w3.org/2000/svg" width="72" height="72" viewBox="0 0 72 72">
    <g fill="none" fill-rule="evenodd">
        <g fill="#000" fill-rule="nonzero">
            <g>
                <path d="M71.93 44.771v24.281c0 1.55-1.258 2.808-2.808 2.808-1.55 0-2.807-1.257-2.807-2.808v-24.28c0-1.548-1.26-2.808-2.807-2.808h-1.946l-.042.217c-1.429 7.435-7.503 13.014-14.854 13.957v7.695c6.027.516 10.41 2.588 10.619 2.688 1.397.671 1.986 2.348 1.315 3.746-.483 1.005-1.487 1.593-2.533 1.593-.405 0-.816-.089-1.206-.274-.067-.032-4.84-2.254-10.862-2.254-6.097 0-10.808 2.228-10.855 2.25-1.397.67-3.074.082-3.745-1.315-.67-1.398-.082-3.075 1.315-3.746.206-.098 4.456-2.108 10.338-2.662v-7.746c-7.273-.69-13.44-3.301-13.737-3.428-1.425-.611-2.085-2.261-1.475-3.686.61-1.424 2.26-2.084 3.684-1.475.102.043 7.473 3.142 14.928 3.142 5.632 0 10.492-4.014 11.555-9.545l4.727-24.577c.069-.52.34-2.11 1.227-3.722 1.511-2.747 4.054-4.26 7.16-4.26 1.551 0 2.808 1.256 2.808 2.806s-1.257 2.807-2.807 2.807c-1.015 0-1.668.374-2.184 1.25-.486.826-.623 1.735-.639 1.85-.007.093-.017.142-.035.237L62.642 36.35h.866c4.643 0 8.421 3.778 8.421 8.421zm-24.141-2.807H8.49c-1.547 0-2.807 1.26-2.807 2.807v24.281c0 1.55-1.256 2.807-2.807 2.807-1.55 0-2.807-1.256-2.807-2.807v-24.28c0-4.644 3.778-8.422 8.421-8.422h3.507c-.261-.63-.456-1.3-.573-2l-1.492-8.904c-.136-.814.093-1.647.626-2.277.533-.63 1.317-.994 2.143-.994h3.897c-.158-.439-.372-.913-.663-1.395-1.48-2.453-4.232-4.026-8.182-4.677-1.53-.252-2.565-1.696-2.313-3.226.251-1.53 1.697-2.566 3.226-2.313 3.265.537 5.753 1.57 7.65 2.8-.832-2.96-2.167-6.078-4.297-8.845-.945-1.229-.715-2.992.514-3.937 1.23-.945 2.991-.715 3.936.513 3.063 3.982 4.765 8.499 5.698 12.56 1.786-3.52 4.683-6.99 9.384-8.948 1.43-.596 3.074.08 3.67 1.512.597 1.43-.08 3.074-1.511 3.67-3.438 1.432-5.95 4.275-7.466 8.448-.51 1.4-.823 2.736-1.019 3.838h2.914c.825 0 1.609.363 2.142.994.534.63.763 1.463.626 2.277l-1.492 8.905c-.117.7-.311 1.369-.572 2h18.945c1.55 0 2.807 1.256 2.807 2.806s-1.257 2.807-2.807 2.807zM20.42 36.35c1.72 0 3.174-1.23 3.459-2.927l.943-5.634h-2.678l-.04.002-.04-.002h-6.047l.944 5.634c.284 1.697 1.739 2.927 3.46 2.927z" transform="translate(-20 -783) translate(20 783)"/>
            </g>
        </g>
    </g>
</svg>
