<svg xmlns="http://www.w3.org/2000/svg" width="72" height="72" viewBox="0 0 72 72">
    <g fill="none" fill-rule="evenodd">
        <g fill="#000" fill-rule="nonzero">
            <g>
                <path d="M.085 24.813l8.106 44.83c.077.268.336 1.04 1.107 1.645.742.581 1.52.662 1.801.678h58.279c1.416-.004 2.56-1.155 2.556-2.572-.004-1.41-1.146-2.551-2.556-2.556h-1.95l3.988-7.441c.076-.151.625-1.287.075-2.502-.439-.967-1.405-1.615-2.504-1.684h-3.996c-.845-2.942-3.098-5.31-5.972-6.312.714-1.342 2.12-2.24 3.77-2.24.612 0 1.218.133 1.776.387 1.271.623 2.807.097 3.429-1.175.622-1.272.096-2.807-1.175-3.43-.042-.019-.083-.039-.125-.056-1.227-.56-2.56-.85-3.907-.85-4.378 0-8.09 3.051-9.114 7.128-3.245.82-5.836 3.343-6.754 6.548h-4.012c-.146.01-1.493.126-2.263 1.328-.858 1.34-.193 2.773-.154 2.854l3.99 7.445h-9.486l7.63-42.2c.272-1.389-.634-2.735-2.023-3.007-.193-.037-37.882-.047-38.017-.047-.24 0-1.04.03-1.714.626-.704.623-.998 1.621-.785 2.603zm56.292 28.711c1.243.118 2.317.75 3.012 1.687h-6.868c.696-.938 1.773-1.571 3.019-1.687.14-.013.295-.02.461-.019.134.001.26.008.376.02zm-9.564 6.814h18.281l-3.483 6.5H50.296l-3.483-6.5zm-33.92 6.5l-7.25-40.09h31.39l-7.25 40.09h-16.89z" transform="translate(-153 -351) translate(153 351)"/>
                <path d="M19.349 48.983l5.723-9.912c.725-1.216.328-2.79-.888-3.515-.392-.234-.838-.359-1.293-.362-.937-.01-1.803.495-2.26 1.312l-5.723 9.914c-.708 1.226-.288 2.794.939 3.502 1.226.708 2.794.288 3.502-.939zM26.882 43.65c-.391-.233-.837-.358-1.292-.362-.937-.008-1.805.496-2.261 1.314l-5.723 9.912c-.708 1.227-.289 2.794.938 3.503 1.227.709 2.794.289 3.503-.938l5.723-9.913c.725-1.217.328-2.79-.888-3.515zM13.473 9.787l.933 1.898-.933 1.899c-.65 1.258-.156 2.804 1.104 3.454 1.258.649 2.804.155 3.453-1.104.016-.03 1.534-3.12 1.534-3.12.35-.713.35-1.548 0-2.26l-1.49-3.03-.932-1.897.932-1.899c.643-1.26.142-2.805-1.12-3.448-.329-.168-.69-.263-1.059-.277-1.028-.043-1.981.533-2.422 1.463l-1.49 3.03c-.35.713-.35 1.548 0 2.26l1.49 3.03zM22.78 9.787l.932 1.898-.932 1.899c-.65 1.258-.156 2.804 1.103 3.454 1.258.649 2.804.155 3.454-1.104l1.533-3.12c.35-.713.35-1.548 0-2.26l-1.489-3.03-.933-1.897.933-1.899c.643-1.26.142-2.805-1.12-3.448-.33-.168-.69-.263-1.06-.277-1.027-.043-1.98.533-2.421 1.463l-1.49 3.03c-.35.713-.35 1.548 0 2.26l1.49 3.03z" transform="translate(-153 -351) translate(153 351)"/>
            </g>
        </g>
    </g>
</svg>
