<svg xmlns="http://www.w3.org/2000/svg" width="72" height="72" viewBox="0 0 72 72">
    <g fill="none" fill-rule="evenodd">
        <g fill="#000" fill-rule="nonzero">
            <g>
                <path d="M62.108 21.9l.016.015c-.006-.008-.053-.058-.016-.015zM16.147 33.448l-.011-.012c-1.522-1.522-3.546-2.36-5.699-2.36s-4.176.838-5.698 2.36c-3.042 3.041-3.14 7.928-.294 11.088-.792.4-1.522.933-2.16 1.59-3.077 3.165-3.041 8.28.075 11.396l4.05 4.074-2.785 2.782c-1.099 1.098-1.1 2.879-.002 3.978.549.55 1.27.825 1.99.825.719 0 1.438-.274 1.987-.823l2.776-2.773L14.4 69.62c1.294 1.294 3.007 2.12 4.823 2.327.313.035.625.053.936.053 2.184 0 4.26-.871 5.807-2.462.552-.568 1.002-1.199 1.354-1.87 1.55 1.469 3.543 2.205 5.538 2.205 2.064 0 4.128-.785 5.699-2.357 3.14-3.14 3.142-8.247.006-11.39L16.147 33.448zm5.784 32.17c-.543.558-1.3.827-2.074.74-.394-.045-.97-.206-1.474-.71l-12.04-12.11c-.959-.958-.97-2.53-.024-3.503.47-.483 1.098-.751 1.772-.756h.018c.588 0 1.145.202 1.588.57l12.557 12.706c.594.951.49 2.227-.323 3.062zm12.647-2.08c-.948.948-2.488.95-3.437.005L8.716 40.855c-.949-.949-.949-2.493 0-3.442.46-.46 1.07-.712 1.72-.712.649 0 1.258.251 1.717.708l22.413 22.676.012.012c.949.949.949 2.493 0 3.442z" transform="translate(-20 -639) translate(20 639)"/>
                <path d="M39.258 8.144c.65 0 1.26.253 1.73.721l17.148 17.019c1.576 1.575 3.659 2.365 5.743 2.365 2.045 0 4.092-.76 5.66-2.285 1.816-1.766 2.694-4.224 2.408-6.743-.206-1.815-1.032-3.528-2.332-4.827l-4.041-4.018L68.347 7.6c1.097-1.099 1.096-2.88-.003-3.978-1.1-1.097-2.88-1.096-3.978.003L61.585 6.41l-4.068-4.045c-3.122-3.121-8.237-3.157-11.403-.08-.663.644-1.2 1.382-1.602 2.184-1.461-1.26-3.304-1.95-5.254-1.95-2.153 0-4.176.838-5.699 2.36-1.522 1.522-2.36 3.546-2.36 5.698 0 2.153.838 4.177 2.354 5.693l9.058 9.115-13.524 13.56c-1.097 1.1-1.095 2.88.005 3.978.549.547 1.267.82 1.986.82.721 0 1.442-.275 1.992-.826l13.506-13.542 9.258 9.316c1.522 1.522 3.546 2.36 5.698 2.36 2.153 0 4.177-.838 5.699-2.36 1.098-1.099 1.098-2.88 0-3.978-1.098-1.098-2.88-1.098-3.978 0-.46.46-1.07.713-1.72.713-.65 0-1.262-.253-1.715-.706L37.537 12.298c-.46-.46-.713-1.07-.713-1.72 0-.65.253-1.262.713-1.722.46-.46 1.07-.712 1.72-.712zm10.777-1.825c.481-.468 1.109-.702 1.737-.702.642 0 1.285.244 1.773.732l12.098 12.028c.51.51.67 1.086.715 1.479.088.776-.182 1.532-.74 2.075-.968.94-2.528.934-3.494-.016l-.016-.015L50.01 9.872c-.476-.476-.735-1.109-.73-1.782.004-.673.272-1.302.755-1.771z" transform="translate(-20 -639) translate(20 639)"/>
            </g>
        </g>
    </g>
</svg>
