<svg xmlns="http://www.w3.org/2000/svg" width="72" height="72" viewBox="0 0 72 72">
    <g fill="none" fill-rule="evenodd">
        <g fill="#000" fill-rule="nonzero">
            <g>
                <path d="M71.93 41.548c0 .632-.06 1.273-.176 1.905-.28 1.525-1.74 2.534-3.267 2.255-1.524-.28-2.534-1.743-2.255-3.267.055-.299.083-.6.083-.893 0-3.32-1.91-7.734-3.212-10.25H49.32c-.742 1.439-1.684 3.498-2.355 5.614H58.89c1.55 0 2.807 1.257 2.807 2.807s-1.257 2.807-2.807 2.807H46.212c.806 3.82 6.001 8.296 9.998 8.296 1.05 0 2.42-.369 3.665-.986 1.39-.69 3.073-.122 3.762 1.268.689 1.388.121 3.073-1.267 3.761-1.098.544-2.235.955-3.353 1.22v8.616c3.992.439 7.379 1.649 7.552 1.711 1.457.528 2.212 2.137 1.684 3.595-.413 1.142-1.49 1.853-2.64 1.853-.317 0-.64-.055-.955-.169-.039-.014-4.316-1.533-8.362-1.533-4.034 0-8.196 1.512-8.237 1.527-1.454.534-3.068-.21-3.603-1.662-.537-1.453.204-3.065 1.656-3.603.167-.062 3.393-1.243 7.291-1.698v-8.644c-2.637-.647-5.367-2.145-7.69-4.273-3.318-3.043-5.222-6.782-5.222-10.257 0-6.424 4.561-14.166 4.756-14.492.505-.851 1.422-1.372 2.412-1.372h17.102c.99 0 1.906.521 2.412 1.372.194.326 4.756 8.068 4.756 14.492zm-38.69-5.657c2.204 5.037 3.32 10.38 3.32 15.878v17.283c0 1.55-1.256 2.807-2.806 2.807H2.877c-1.55 0-2.807-1.256-2.807-2.807V51.77c0-5.498 1.118-10.84 3.321-15.878l5.886-13.454c.41-.936.617-1.928.617-2.95V5.522C8.684 5.21 7.79 4.115 7.79 2.807 7.789 1.257 9.046 0 10.596 0h15.439c1.55 0 2.807 1.257 2.807 2.807 0 1.308-.896 2.403-2.106 2.715v13.965c0 1.022.208 2.014.618 2.95l5.886 13.454zm-2.293 15.878c0-4.72-.96-9.304-2.85-13.628L22.21 24.687c-.722-1.65-1.088-3.4-1.088-5.2V5.614H15.51v13.873c0 1.801-.366 3.55-1.088 5.2L9.072 36.913H20.14c1.55 0 2.807 1.257 2.807 2.807s-1.257 2.807-2.807 2.807H6.963c-.848 2.996-1.279 6.09-1.279 9.243v14.476h25.263V51.77z" transform="translate(-153 -639) translate(153 639)"/>
            </g>
        </g>
    </g>
</svg>
