<svg xmlns="http://www.w3.org/2000/svg" width="72" height="72" viewBox="0 0 72 72">
    <g fill="none" fill-rule="evenodd">
        <g fill="#000" fill-rule="nonzero">
            <g>
                <path d="M69.188 39.516h-9.422V38.39c0-6.048-4.92-10.97-10.97-10.97-6.048 0-10.968 4.922-10.968 10.97v1.125H27.562c-1.553 0-2.812 1.259-2.812 2.812v18.844c0 1.868.46 3.642 1.324 5.203H11.25c-3.207 0-5.625-2.237-5.625-5.203V19.125h13.078v2.813c0 1.553 1.26 2.812 2.813 2.812 1.553 0 2.812-1.259 2.812-2.813v-2.812h10.688v2.813c0 1.553 1.259 2.812 2.812 2.812 1.554 0 2.813-1.259 2.813-2.813v-2.812h13.5v2.813c0 1.553 1.259 2.812 2.812 2.812 1.554 0 2.813-1.259 2.813-2.813v-5.625c0-1.553-1.26-2.812-2.813-2.812H40.641v-2.531C40.64 4.92 35.72 0 29.67 0c-6.048 0-10.968 4.92-10.968 10.969V13.5H2.813C1.258 13.5 0 14.759 0 16.313v44.859c0 3.017 1.196 5.792 3.367 7.813C5.455 70.93 8.255 72 11.25 72h49.5C66.953 72 72 66.953 72 60.75V42.328c0-1.553-1.259-2.812-2.813-2.812zm-44.86-28.547c0-2.947 2.397-5.344 5.344-5.344 2.946 0 5.344 2.397 5.344 5.344V13.5H24.328v-2.531zM43.453 38.39c0-2.947 2.397-5.344 5.344-5.344 2.946 0 5.344 2.397 5.344 5.344v1.125H43.453V38.39zM66.375 60.75c0 3.101-2.524 5.625-5.625 5.625H36c-3.207 0-5.625-2.237-5.625-5.203V45.14h7.453v2.953c0 1.553 1.26 2.812 2.813 2.812 1.553 0 2.812-1.259 2.812-2.812V45.14h10.688v2.953c0 1.553 1.259 2.812 2.812 2.812 1.554 0 2.813-1.259 2.813-2.812V45.14h6.609V60.75z" transform="translate(-283 -495) translate(283 495)"/>
            </g>
        </g>
    </g>
</svg>
