<svg xmlns="http://www.w3.org/2000/svg" width="72" height="72" viewBox="0 0 72 72">
    <g fill="none" fill-rule="evenodd">
        <g fill="#000">
            <g>
                <path d="M72 8.517V24.68c0 4.696-3.82 8.517-8.517 8.517-.65 0-1.18.53-1.18 1.18v3.43c0 1.606-.958 3.04-2.44 3.654-.493.204-1.008.303-1.518.303-1.027 0-2.034-.401-2.792-1.16l-.035-.036-5.419-5.616c-.704-.702-1.136-1.009-1.768-1.257-1.446-.568-2.157-2.2-1.59-3.646.568-1.446 2.2-2.158 3.647-1.59 1.7.668 2.785 1.612 3.706 2.532.011.013.024.024.035.036l2.582 2.677c.34-3.438 3.247-6.133 6.772-6.133 1.595 0 2.892-1.297 2.892-2.89V8.516c0-1.595-1.297-2.892-2.892-2.892H50.906c-1.553 0-2.812-1.259-2.812-2.813C48.094 1.26 49.353 0 50.906 0h12.577C68.18 0 72 3.82 72 8.517zM21.375 19.828c1.553 0 2.813-1.259 2.813-2.812 0-1.554-1.26-2.813-2.813-2.813-1.553 0-2.813 1.26-2.813 2.813 0 1.553 1.26 2.812 2.813 2.812zm9.844 0c1.553 0 2.812-1.259 2.812-2.812 0-1.554-1.259-2.813-2.812-2.813-1.554 0-2.813 1.26-2.813 2.813 0 1.553 1.26 2.812 2.813 2.812zm-19.547 0c1.553 0 2.812-1.259 2.812-2.812 0-1.554-1.259-2.813-2.812-2.813-1.554 0-2.813 1.26-2.813 2.813 0 1.553 1.26 2.812 2.813 2.812zM72 67.954v1.234C72 70.74 70.741 72 69.187 72c-1.553 0-2.812-1.259-2.812-2.813v-1.233c0-.565-.233-1.097-.641-1.46-1.427-1.274-3.902-2.79-7.586-2.79-3.683 0-6.158 1.516-7.585 2.79-.408.363-.641.895-.641 1.46v1.234c0 1.553-1.26 2.812-2.813 2.812-1.553 0-2.812-1.259-2.812-2.813v-1.233c0-.562-.235-1.092-.644-1.455-1.44-1.275-3.936-2.796-7.653-2.796-3.717 0-6.213 1.52-7.652 2.796-.41.363-.645.893-.645 1.455v1.234c0 1.553-1.259 2.812-2.812 2.812-1.554 0-2.813-1.259-2.813-2.813v-1.233c0-.565-.233-1.097-.64-1.46-1.428-1.274-3.903-2.79-7.586-2.79-3.684 0-6.159 1.516-7.586 2.79-.408.363-.641.895-.641 1.46v1.234C5.625 70.74 4.366 72 2.812 72 1.26 72 0 70.741 0 69.187v-1.233c0-2.167.919-4.23 2.522-5.659 1.048-.934 2.464-1.955 4.268-2.758-.74-1.255-1.165-2.714-1.165-4.271 0-4.653 3.785-8.438 8.438-8.438 4.652 0 8.437 3.785 8.437 8.438 0 1.62-.46 3.136-1.256 4.422 1.493.705 2.707 1.554 3.652 2.36.992-.84 2.275-1.728 3.867-2.45-.762-1.267-1.2-2.75-1.2-4.332 0-4.653 3.784-8.438 8.437-8.438s8.438 3.785 8.438 8.438c0 1.583-.44 3.065-1.2 4.332 1.59.722 2.874 1.61 3.866 2.45.991-.845 2.277-1.737 3.87-2.461-.756-1.266-1.193-2.743-1.193-4.321 0-4.653 3.785-8.438 8.438-8.438 4.652 0 8.437 3.785 8.437 8.438 0 1.599-.447 3.096-1.223 4.371 1.698.787 3.04 1.762 4.045 2.658C71.081 63.725 72 65.787 72 67.954zM11.25 55.266c0 1.55 1.262 2.812 2.813 2.812 1.55 0 2.812-1.262 2.812-2.812 0-1.551-1.262-2.813-2.813-2.813-1.55 0-2.812 1.262-2.812 2.813zM36 58.078c1.55 0 2.813-1.262 2.813-2.812 0-1.551-1.262-2.813-2.813-2.813-1.55 0-2.813 1.262-2.813 2.813 0 1.55 1.262 2.812 2.813 2.812zm19.406-2.812c0 1.55 1.262 2.812 2.813 2.812 1.55 0 2.812-1.262 2.812-2.812 0-1.551-1.262-2.813-2.812-2.813-1.551 0-2.813 1.262-2.813 2.813zM0 24.68V8.517C0 3.82 3.82 0 8.517 0h25.857c4.696 0 8.517 3.82 8.517 8.517V24.68c0 4.696-3.82 8.517-8.517 8.517h-8.212c-1.608 0-3.12.623-4.262 1.756l-5.418 5.615-.035.036c-.759.759-1.765 1.16-2.792 1.16-.51 0-1.025-.099-1.517-.303-1.483-.614-2.441-2.047-2.441-3.653v-3.43c0-.652-.53-1.181-1.18-1.181C3.82 33.198 0 29.377 0 24.68zm5.625 0c0 1.594 1.297 2.892 2.892 2.892 3.525 0 6.433 2.694 6.772 6.132l2.582-2.677.036-.036c2.205-2.205 5.136-3.42 8.255-3.42h8.212c1.595 0 2.892-1.297 2.892-2.89V8.516c0-1.595-1.297-2.892-2.892-2.892H8.517c-1.595 0-2.892 1.297-2.892 2.892V24.68z" transform="translate(-20 -351) translate(20 351)"/>
            </g>
        </g>
    </g>
</svg>
