<svg xmlns="http://www.w3.org/2000/svg" width="72" height="72" viewBox="0 0 72 72">
    <g fill="none" fill-rule="evenodd">
        <g fill="#000" fill-rule="nonzero">
            <g>
                <path d="M42.328 60.75h26.86c1.553 0 2.812-1.26 2.812-2.813V25.313c0-1.554-1.26-2.813-2.813-2.813H54.984v-8.438c0-1.553-1.259-2.812-2.812-2.812H38.109V2.812C38.11 1.26 36.85 0 35.297 0H8.437C3.785 0 0 3.785 0 8.438v32.624C0 45.715 3.785 49.5 8.438 49.5h8.437v2.813c0 4.652 3.785 8.437 8.438 8.437h8.578v2.813c0 4.652 3.785 8.437 8.437 8.437h26.86C70.74 72 72 70.74 72 69.187c0-1.553-1.26-2.812-2.813-2.812H42.328c-1.55 0-2.812-1.262-2.812-2.813 0-1.55 1.261-2.812 2.812-2.812zm24.047-5.625H50.906V36.562c0-1.553-1.259-2.812-2.812-2.812-1.554 0-2.813 1.26-2.813 2.813v18.562h-2.953c-.986 0-1.932.17-2.812.482v-24.67c0-1.55 1.261-2.812 2.812-2.812h24.047v27zM49.359 22.5h-7.03c-4.653 0-8.438 3.785-8.438 8.438v12.937h-8.578c-.986 0-1.933.172-2.813.484V19.687c0-1.55 1.262-2.812 2.813-2.812h24.046V22.5zM8.437 5.625h24.047v5.625h-7.172c-4.652 0-8.437 3.785-8.437 8.438v12.937H8.437c-.985 0-1.932.172-2.812.484V8.437c0-1.55 1.262-2.812 2.813-2.812zm0 38.25c-1.55 0-2.812-1.262-2.812-2.813 0-1.55 1.262-2.812 2.813-2.812h8.437v5.625H8.437zm16.876 11.25c-1.551 0-2.813-1.262-2.813-2.813 0-1.55 1.262-2.812 2.813-2.812h8.578v5.625h-8.578z" transform="translate(-20 -495) translate(20 495)"/>
            </g>
        </g>
    </g>
</svg>
