<svg xmlns="http://www.w3.org/2000/svg" width="72" height="72" viewBox="0 0 72 72">
    <g fill="none" fill-rule="evenodd">
        <g fill="#000" fill-rule="nonzero">
            <g>
                <path d="M71.76 66.307c-.315-1.517-1.801-2.492-3.319-2.177-1.13.236-1.96 1.12-2.18 2.185H50.553c1.155-3.15 4.192-5.334 7.618-5.334h.147c.026 0 .05-.003.075-.004 4.575-.08 8.273-3.823 8.273-8.417 0-4.643-3.777-8.42-8.421-8.42-4.643 0-8.42 3.777-8.42 8.42 0 1.737.528 3.353 1.433 4.695-1.627.955-3.051 2.236-4.17 3.763-1.12-1.527-2.544-2.808-4.17-3.763.904-1.342 1.433-2.958 1.433-4.695 0-4.643-3.778-8.42-8.421-8.42-4.644 0-8.421 3.777-8.421 8.42 0 1.737.529 3.353 1.433 4.695-1.627.955-3.05 2.236-4.17 3.763-1.12-1.527-2.543-2.808-4.17-3.763.905-1.342 1.433-2.958 1.433-4.695 0-4.643-3.777-8.42-8.421-8.42-4.643 0-8.421 3.777-8.421 8.42 0 1.737.529 3.353 1.434 4.695C3.357 59.173.908 62.41.099 66.307c-.288 1.386.058 2.81.95 3.904.888 1.091 2.203 1.717 3.609 1.717h62.544c1.405 0 2.721-.626 3.609-1.717.891-1.095 1.237-2.518.95-3.904zm-35.904-5.326h.147c3.427 0 6.464 2.184 7.62 5.334H28.236c1.155-3.15 4.193-5.334 7.62-5.334zm22.389-11.228c1.548 0 2.807 1.26 2.807 2.807 0 1.548-1.26 2.807-2.807 2.807-1.548 0-2.807-1.26-2.807-2.807 0-1.548 1.26-2.807 2.807-2.807zm-22.315 0c1.547 0 2.807 1.26 2.807 2.807 0 1.548-1.26 2.807-2.807 2.807-1.548 0-2.807-1.26-2.807-2.807 0-1.548 1.259-2.807 2.807-2.807zm-22.316 0c1.548 0 2.807 1.26 2.807 2.807 0 1.548-1.26 2.807-2.807 2.807-1.548 0-2.807-1.26-2.807-2.807 0-1.548 1.26-2.807 2.807-2.807zM5.92 66.315c1.155-3.15 4.194-5.334 7.62-5.334h.147c3.428 0 6.466 2.184 7.622 5.334H5.919zm7.028-29.162c.483.93 1.443 1.512 2.49 1.512h6.597v2.667c0 1.55 1.257 2.807 2.807 2.807s2.807-1.256 2.807-2.807v-5.474c0-1.55-1.257-2.807-2.807-2.807h-7.698l-2.698-5.192h42.967l-2.698 5.192h-7.558c-1.55 0-2.807 1.258-2.807 2.807v5.474c0 1.55 1.257 2.807 2.807 2.807s2.807-1.256 2.807-2.807v-2.667h6.456c1.048 0 2.009-.583 2.492-1.512l5.613-10.807c.256-.492.355-1.04.302-1.574.01-.092.014-.187.014-.281v-8.842c0-.902-.433-1.748-1.163-2.276l-4.312-3.114.002-.084c0-2.713-2.2-4.912-4.913-4.912-2.712 0-4.912 2.2-4.912 4.912 0 2.713 2.2 4.912 4.912 4.912.57 0 1.117-.097 1.625-.276l3.147 2.273v5.161h-9.78l-.002-.007c-.81-3.896-3.26-7.134-6.528-9.052.905-1.342 1.433-2.958 1.433-4.695 0-4.643-3.777-8.42-8.42-8.42-4.644 0-8.421 3.777-8.421 8.42 0 1.737.528 3.353 1.433 4.695-3.269 1.918-5.718 5.156-6.528 9.052v.007H9.823c-.98 0-1.89.512-2.399 1.35-.508.838-.543 1.88-.091 2.751l5.614 10.807zM35.93 5.683c1.547 0 2.807 1.26 2.807 2.808 0 1.547-1.26 2.807-2.807 2.807-1.548 0-2.807-1.26-2.807-2.807 0-1.548 1.259-2.807 2.807-2.807zm-.074 11.229h.147c3.427 0 6.466 2.183 7.621 5.333H28.235c1.156-3.15 4.194-5.333 7.621-5.333z" transform="translate(-153 -495) translate(153 495)"/>
            </g>
        </g>
    </g>
</svg>
