<svg xmlns="http://www.w3.org/2000/svg" width="72" height="72" viewBox="0 0 72 72">
    <g fill="none" fill-rule="evenodd">
        <g fill="#000" fill-rule="nonzero">
            <g>
                <path d="M67.827 63.6c-.09-.108-.186-.213-.284-.314-.046-.078-.095-.155-.148-.229-5.88-8.127-13.13-12.495-20.991-12.662-.488-3.839-1.274-7.567-2.349-11.149 4.134-.532 7.338-4.072 7.338-8.349 0-4.642-3.777-8.42-8.42-8.42-1.42 0-2.759.355-3.933.978-.362-1.127-.955-2.151-1.724-3.017 8.207-3.005 17.606-4.166 24.897 4.733-.517.044-1.038.078-1.562.1-1.55.066-2.751 1.375-2.685 2.924.063 1.508 1.306 2.688 2.802 2.688l.121-.003c2.324-.1 4.61-.39 6.794-.867.882-.192 1.617-.797 1.977-1.624.36-.828.299-1.778-.163-2.554-2.746-4.615-6.124-8.073-10.042-10.28-1.49-.838-3.062-1.497-4.706-1.977 3.229-2.373 5.785-4.88 7.734-7.577.533-.738.676-1.69.381-2.552-.294-.862-.988-1.527-1.862-1.785C57.353.59 54.26.045 51.55.004c-6.42-.1-11.984 2.055-16.097 6.233-.611.621-1.187 1.286-1.723 1.985-.569-1.288-1.417-2.587-2.678-3.712-2.577-2.298-6.155-2.798-8.704-2.813-2.02-.017-3.54.3-3.707.337-.778.165-1.449.654-1.846 1.343-.398.688-.484 1.514-.238 2.27.117.359.405 1.197.858 2.224-2.812.018-5.696.629-8.57 1.835-2.628 1.103-5.236 2.67-7.754 4.66-.704.556-1.1 1.416-1.065 2.312.036.897.497 1.723 1.243 2.223 2.756 1.845 5.858 3.316 9.042 4.32-2.098 1.67-3.814 3.714-5.118 6.109-2.05 3.766-3.089 8.43-3.089 13.864 0 .824.363 1.607.99 2.14.512.434 1.157.667 1.817.667.152 0 .305-.012.457-.037 5.026-.83 10.128-3.196 14.755-6.847 1.217-.96 1.425-2.725.465-3.942s-2.725-1.425-3.943-.465c-2.077 1.64-5.1 3.625-8.73 4.846C9.227 28.106 16.79 24.9 22.874 23.89c-.178.68-.274 1.395-.274 2.131 0 4.643 3.778 8.42 8.42 8.42 1.42 0 2.76-.354 3.934-.977.478 1.49 1.362 2.8 2.52 3.803 1.564 4.206 2.669 8.68 3.296 13.345-6.84.988-13.13 5.24-18.343 12.445-.053.075-.102.151-.148.23-.098.1-.193.205-.284.314-1.479 1.77-2.948 2.786-4.03 2.786-1.082 0-2.55-1.016-4.03-2.786-1.202-1.44-3.008-2.267-4.952-2.267s-3.75.826-4.952 2.267C2.55 65.371 1.082 66.387 0 66.387V72c2.872 0 5.678-1.615 8.338-4.8.132-.158.373-.252.644-.252.272 0 .512.094.644.252 2.661 3.185 5.466 4.8 8.338 4.8 2.872 0 5.677-1.615 8.338-4.8.132-.158.373-.252.644-.252.272 0 .513.094.645.252 2.66 3.185 5.465 4.8 8.338 4.8 2.871 0 5.677-1.615 8.338-4.8.131-.158.372-.252.643-.252.272 0 .513.094.645.252 2.66 3.185 5.466 4.8 8.338 4.8 2.872 0 5.677-1.615 8.338-4.8.131-.158.372-.252.644-.252.271 0 .512.094.644.252 2.66 3.185 5.466 4.8 8.338 4.8v-5.613c-1.083-.001-2.55-1.016-4.03-2.787zM42.973 28.09c1.547 0 2.806 1.26 2.806 2.807 0 1.548-1.259 2.807-2.806 2.807-1.548 0-2.807-1.259-2.807-2.807 0-1.547 1.259-2.806 2.807-2.806zm8.49-22.474c1.096.017 2.293.142 3.609.38-2.41 2.341-5.523 4.558-9.415 6.711l-.031.02c-3.52.288-6.768 1.186-9.377 2.103 2.085-4.544 6.673-9.347 15.214-9.214zM27.316 8.7c.93.829 1.415 1.915 1.666 2.901-1.115-.798-2.303-1.485-3.54-2.039-.161-.145-.34-.274-.54-.381-.411-.221-.94-.92-1.458-1.817 1.691.15 3.069.62 3.872 1.336zM11.02 14.883c7.585-3.185 13.318-.395 16.627 2.909-2.187.114-5.516.309-9.091 1.321-.047-.004-.093-.012-.14-.015-3.34-.202-6.982-1.195-10.296-2.76.965-.564 1.933-1.05 2.9-1.455zm20 13.945c-1.547 0-2.806-1.26-2.806-2.807 0-1.548 1.259-2.807 2.807-2.807s2.807 1.26 2.807 2.807c0 1.548-1.26 2.807-2.807 2.807zM57.923 63.6c-1.479 1.77-2.947 2.786-4.03 2.786-1.082 0-2.55-1.015-4.029-2.786-1.203-1.44-3.009-2.266-4.953-2.266-1.944 0-3.749.826-4.952 2.266-1.478 1.77-2.947 2.786-4.03 2.786-1.082 0-2.55-1.015-4.03-2.786-.435-.52-.95-.96-1.521-1.31 4.109-4.176 8.635-6.288 13.505-6.29l.002.001h2.05c4.872 0 9.4 2.112 13.51 6.288-.571.35-1.086.79-1.522 1.311z" transform="translate(-152 -783) translate(152 783)"/>
            </g>
        </g>
    </g>
</svg>
