<svg xmlns="http://www.w3.org/2000/svg" width="270" height="80" viewBox="0 0 270 80">
    <defs>
        <linearGradient id="xzyyujcbsa" x1="60.99%" x2="26.536%" y1="4.946%" y2="71.879%">
            <stop offset="0%" stop-color="#00A0FF"/>
            <stop offset="1%" stop-color="#00A1FF"/>
            <stop offset="26%" stop-color="#00BEFF"/>
            <stop offset="51%" stop-color="#00D2FF"/>
            <stop offset="76%" stop-color="#00DFFF"/>
            <stop offset="100%" stop-color="#00E3FF"/>
        </linearGradient>
        <linearGradient id="sks3qoqazb" x1="107.685%" x2="-130.64%" y1="50%" y2="50%">
            <stop offset="0%" stop-color="#FFE000"/>
            <stop offset="41%" stop-color="#FFBD00"/>
            <stop offset="78%" stop-color="orange"/>
            <stop offset="100%" stop-color="#FF9C00"/>
        </linearGradient>
        <linearGradient id="cbjp140jrc" x1="86.271%" x2="-50.18%" y1="30.873%" y2="136.109%">
            <stop offset="0%" stop-color="#FF3A44"/>
            <stop offset="100%" stop-color="#C31162"/>
        </linearGradient>
        <linearGradient id="zdijtazuhd" x1="-18.825%" x2="42.086%" y1="-11.91%" y2="35.079%">
            <stop offset="0%" stop-color="#32A071"/>
            <stop offset="7%" stop-color="#2DA771"/>
            <stop offset="48%" stop-color="#15CF74"/>
            <stop offset="80%" stop-color="#06E775"/>
            <stop offset="100%" stop-color="#00F076"/>
        </linearGradient>
    </defs>
    <g fill="none" fill-rule="evenodd">
        <g fill-rule="nonzero">
            <g transform="translate(-728 -602) translate(728 602)">
                <rect width="270" height="80" fill="#000" rx="10"/>
                <path fill="#A6A6A6" d="M260 1.6c4.64 0 8.4 3.76 8.4 8.4v60c0 4.64-3.76 8.4-8.4 8.4H10c-4.64 0-8.4-3.76-8.4-8.4V10c0-4.64 3.76-8.4 8.4-8.4h250m0-1.6H10C4.477 0 0 4.477 0 10v60c0 5.523 4.477 10 10 10h250c5.523 0 10-4.477 10-10V10c0-5.523-4.477-10-10-10z"/>
                <path fill="#FFF" stroke="#FFF" stroke-width=".5" d="M94.84 20.48c.066 1.482-.475 2.927-1.5 4-1.15 1.186-2.75 1.827-4.4 1.76-1.659.037-3.259-.615-4.42-1.8-1.198-1.162-1.857-2.771-1.82-4.44-.043-1.676.617-3.293 1.82-4.46 1.822-1.78 4.534-2.293 6.88-1.3.721.296 1.364.755 1.88 1.34l-1.06 1.06c-.805-.97-2.02-1.504-3.28-1.44-1.262-.006-2.473.502-3.352 1.408-.88.906-1.352 2.13-1.308 3.392-.027 1.906 1.096 3.642 2.846 4.399 1.75.756 3.783.386 5.154-.939.617-.668.978-1.532 1.02-2.44h-4.36v-1.44h5.82c.045.298.071.599.08.9zM104 15.48L98.6 15.48 98.6 19.28 103.52 19.28 103.52 20.72 98.6 20.72 98.6 24.52 104 24.52 104 26 97.04 26 97.04 14 104 14zM110.56 26L109.02 26 109.02 15.48 105.66 15.48 105.66 14 114 14 114 15.48 110.56 15.48zM119.88 26L119.88 14 121.42 14 121.42 26zM128.26 26L126.72 26 126.72 15.48 123.36 15.48 123.36 14 131.6 14 131.6 15.48 128.26 15.48zM147.22 24.44c-1.167 1.168-2.75 1.824-4.4 1.824-1.65 0-3.233-.656-4.4-1.824-1.176-1.173-1.813-2.78-1.76-4.44-.053-1.66.584-3.267 1.76-4.44 1.143-1.202 2.742-1.863 4.4-1.82 1.655-.026 3.247.632 4.4 1.82 1.162 1.182 1.797 2.783 1.76 4.44.053 1.66-.584 3.267-1.76 4.44h0zm-7.66-1c.86.872 2.035 1.363 3.26 1.363 1.225 0 2.4-.49 3.26-1.363.895-.917 1.379-2.159 1.34-3.44.018-1.293-.496-2.536-1.42-3.44-.86-.872-2.035-1.363-3.26-1.363-1.225 0-2.4.49-3.26 1.363-.866.93-1.32 2.17-1.26 3.44-.039 1.281.445 2.523 1.34 3.44h0zM151.16 26L151.16 14 153.02 14 158.86 23.34 158.86 23.34 158.86 21.02 158.86 14 160.4 14 160.4 26 158.8 26 152.7 16.22 152.7 16.22 152.7 18.52 152.7 26z"/>
                <path fill="#FFF" d="M136.28 43.5c-4.705.011-8.511 3.835-8.5 8.54.011 4.705 3.835 8.511 8.54 8.5 4.705-.011 8.511-3.835 8.5-8.54.033-2.271-.858-4.459-2.467-6.061-1.61-1.602-3.802-2.483-6.073-2.439zm0 13.66c-2.114.148-4.103-1.011-5.016-2.923-.913-1.912-.565-4.188.878-5.739 1.443-1.551 3.688-2.063 5.66-1.29 1.973.773 3.273 2.673 3.278 4.792.065 1.325-.408 2.62-1.312 3.592-.904.972-2.161 1.537-3.488 1.568zM117.64 43.5c-4.705.011-8.511 3.835-8.5 8.54.011 4.705 3.835 8.511 8.54 8.5 4.705-.011 8.511-3.835 8.5-8.54.033-2.271-.858-4.459-2.467-6.061-1.61-1.602-3.802-2.483-6.073-2.439zm0 13.66c-2.114.148-4.103-1.011-5.016-2.923-.913-1.912-.565-4.188.878-5.739 1.443-1.551 3.688-2.063 5.66-1.29 1.973.773 3.273 2.673 3.278 4.792.065 1.325-.408 2.62-1.312 3.592-.904.972-2.161 1.537-3.488 1.568zM95.48 46.12v3.6h8.64c-.135 1.696-.84 3.296-2 4.54-1.753 1.786-4.18 2.745-6.68 2.64-5.302 0-9.6-4.298-9.6-9.6s4.298-9.6 9.6-9.6c2.44-.036 4.798.89 6.56 2.58l2.54-2.54c-2.408-2.382-5.674-3.694-9.06-3.64-4.842-.188-9.4 2.287-11.876 6.452-2.477 4.165-2.477 9.351 0 13.516 2.477 4.165 7.034 6.64 11.876 6.452 3.46.138 6.815-1.208 9.22-3.7 2.1-2.307 3.22-5.342 3.12-8.46.007-.75-.053-1.5-.18-2.24H95.48zm90.62 2.8c-1.068-3.142-3.964-5.298-7.28-5.42-2.211-.004-4.326.907-5.841 2.517-1.516 1.61-2.297 3.776-2.159 5.983-.035 3.75 2.402 7.075 5.989 8.17 3.586 1.096 7.465-.3 9.531-3.43l-2.9-2c-.88 1.466-2.47 2.357-4.18 2.34-1.774.073-3.411-.952-4.12-2.58l11.38-4.7-.42-.88zm-11.6 2.84c-.082-1.253.345-2.486 1.185-3.42.84-.933 2.02-1.489 3.275-1.54 1.313-.084 2.549.625 3.14 1.8l-7.6 3.16zM165.26 60H169V35h-3.74v25zm-6.12-14.6H159c-1.149-1.25-2.782-1.943-4.48-1.9-4.54.22-8.107 3.965-8.107 8.51s3.567 8.29 8.107 8.51c1.717.034 3.36-.699 4.48-2h.14v1.22c0 3.26-1.74 5-4.54 5-1.913-.042-3.611-1.235-4.3-3.02l-3.24 1.34c1.226 3.08 4.225 5.085 7.54 5.04 4.38 0 8-2.58 8-8.86V44h-3.46v1.4zm-4.3 11.76c-2.72-.17-4.839-2.425-4.839-5.15 0-2.725 2.12-4.98 4.839-5.15 1.294.056 2.51.634 3.37 1.603.86.97 1.289 2.246 1.19 3.537.11 1.296-.315 2.58-1.176 3.556-.861.974-2.084 1.554-3.384 1.604zM203.62 35h-8.96v25h3.74v-9.48h5.22c2.905.209 5.684-1.223 7.2-3.71 1.517-2.487 1.517-5.613 0-8.1-1.516-2.487-4.295-3.919-7.2-3.71zm0 12h-5.22v-8.52h5.3c2.364 0 4.28 1.916 4.28 4.28 0 2.364-1.916 4.28-4.28 4.28l-.08-.04zm23.08-3.58c-2.784-.172-5.403 1.33-6.66 3.82l3.3 1.38c.681-1.228 2.02-1.941 3.42-1.82.96-.112 1.923.166 2.675.771.752.606 1.23 1.488 1.325 2.449v.24c-1.203-.632-2.541-.962-3.9-.96-3.56 0-7.2 2-7.2 5.64.071 1.563.773 3.03 1.945 4.067 1.172 1.037 2.715 1.554 4.275 1.433 1.91.106 3.73-.827 4.76-2.44h.12v2h3.6v-9.62c0-4.38-3.32-6.92-7.58-6.92l-.08-.04zm-.46 13.7c-1.22 0-2.92-.62-2.92-2.12 0-2 2.12-2.68 4-2.68 1.188-.03 2.362.26 3.4.84-.26 2.246-2.14 3.955-4.4 4l-.08-.04zM247.48 44l-4.28 10.84h-.12L238.64 44h-4l6.66 15.16-3.8 8.42h4L251.64 44h-4.16zm-33.6 16h3.72V35h-3.72v25z"/>
                <path fill="url(#xzyyujcbsa)" d="M20.88 15.08c-.638.788-.952 1.789-.88 2.8v44.24c-.068 1.02.27 2.027.94 2.8l.14.16L45.8 40.3v-.6L21.02 14.94l-.14.14z"/>
                <path fill="url(#sks3qoqazb)" d="M54 48.56l-8.2-8.26v-.6l8.2-8.26.18.12L64 37.12c2.8 1.58 2.8 4.18 0 5.78l-9.78 5.56-.22.1z"/>
                <path fill="url(#cbjp140jrc)" d="M54.24 48.46L45.8 40 20.88 64.92c1.166 1.038 2.906 1.097 4.14.14l29.22-16.6"/>
                <path fill="url(#zdijtazuhd)" d="M54.24 31.56l-29.22-16.6c-1.226-.97-2.972-.92-4.14.12L45.8 40l8.44-8.44z"/>
                <path fill="#000" d="M54 48.26l-28.98 16.5c-1.184.893-2.816.893-4 0l-.14.14.14.16c1.184.893 2.816.893 4 0l29.22-16.6-.24-.2z" opacity=".2"/>
                <path fill="#000" d="M20.88 64.64c-.642-.793-.957-1.802-.88-2.82v.3c-.068 1.02.27 2.027.94 2.8l.14-.14-.2-.14zM64 42.6l-10 5.66.18.2L64 42.88c1.18-.5 1.994-1.604 2.12-2.88-.254 1.154-1.04 2.12-2.12 2.6z" opacity=".12"/>
                <path fill="#FFF" d="M25.02 15.24L64 37.4c1.08.48 1.866 1.446 2.12 2.6-.126-1.276-.94-2.38-2.12-2.88L25.02 14.96c-2.78-1.6-5.02-.28-5.02 2.92v.3c0-3.2 2.24-4.52 5.02-2.94z" opacity=".25"/>
            </g>
        </g>
    </g>
</svg>
